<svg width="40" height="40" viewBox="0 0 40 40" fill="none" xmlns="http://www.w3.org/2000/svg">
<circle cx="20" cy="20" r="20" fill="#2A6BDB"/>
<circle cx="20" cy="20" r="20" fill="url(#paint0_linear_2_69)"/>
<mask id="mask0_2_69" style="mask-type:alpha" maskUnits="userSpaceOnUse" x="0" y="0" width="40" height="40">
<circle cx="20" cy="20" r="20" fill="#2A6BDB"/>
<circle cx="20" cy="20" r="20" fill="url(#paint1_linear_2_69)"/>
</mask>
<g mask="url(#mask0_2_69)">
<path d="M21.5062 29.0179H17.291V40H12V10H21.5414C24.575 10 26.9148 10.7898 28.5608 12.3695C30.2069 13.9492 31.03 16.1813 31.03 19.0659C31.03 21.1126 30.6479 22.8228 29.8836 24.1964C29.1311 25.5563 27.9847 26.6415 26.4444 27.4519L32 39.7115V40H26.321L21.5062 29.0179ZM17.291 24.011H21.5591C22.8877 24.011 23.9165 23.6195 24.6455 22.8365C25.3745 22.0398 25.739 20.9478 25.739 19.5604C25.739 18.1456 25.3921 17.033 24.6984 16.2225C24.0165 15.4121 22.9641 15.0069 21.5414 15.0069H17.291V24.011Z" fill="white"/>
</g>
<defs>
<linearGradient id="paint0_linear_2_69" x1="20" y1="0" x2="20" y2="40" gradientUnits="userSpaceOnUse">
<stop stop-color="#4AA7F5"/>
<stop offset="1" stop-color="white" stop-opacity="0"/>
</linearGradient>
<linearGradient id="paint1_linear_2_69" x1="20" y1="0" x2="20" y2="40" gradientUnits="userSpaceOnUse">
<stop stop-color="#4AA7F5"/>
<stop offset="1" stop-color="white" stop-opacity="0"/>
</linearGradient>
</defs>
</svg>
