<svg width="30" height="30" viewBox="0 0 30 30" fill="none" xmlns="http://www.w3.org/2000/svg">
<path d="M10.5355 23.52L6.05985 25.9613C5.79721 26.1045 5.56118 26.2806 5.34155 26.4725C7.95099 28.6726 11.3195 30 14.9999 30C18.6531 30 22 28.6925 24.6021 26.5223C24.3621 26.3196 24.1017 26.1374 23.8131 25.9936L19.0204 23.5975C18.4012 23.2879 18.01 22.6551 18.01 21.9628V20.0825C18.1448 19.9291 18.2987 19.7321 18.4634 19.4994C19.1166 18.5768 19.6108 17.5619 19.9533 16.4972C20.568 16.3075 21.0208 15.7398 21.0208 15.0651V13.0579C21.0208 12.6164 20.8244 12.2219 20.5193 11.9457V9.04415C20.5193 9.04415 21.1153 4.52887 15.0004 4.52887C8.88551 4.52887 9.48155 9.04415 9.48155 9.04415V11.9457C9.17589 12.2219 8.98004 12.6164 8.98004 13.0579V15.0651C8.98004 15.5938 9.25797 16.0591 9.67401 16.3279C10.1755 18.5111 11.4887 20.0825 11.4887 20.0825V21.9164C11.4882 22.5843 11.1225 23.1996 10.5355 23.52Z" fill="white"/>
<path d="M15.2564 0.00229471C6.97355 -0.139215 0.143745 6.46079 0.00223515 14.7436C-0.0781422 19.44 2.01507 23.661 5.3479 26.468C5.56582 26.2778 5.79959 26.1034 6.0594 25.9619L10.5351 23.5206C11.122 23.2002 11.4877 22.5849 11.4877 21.9159V20.0819C11.4877 20.0819 10.1739 18.5106 9.67299 16.3274C9.25752 16.0585 8.97903 15.5938 8.97903 15.0646V13.0574C8.97903 12.6159 9.17544 12.2214 9.48054 11.9451V9.04362C9.48054 9.04362 8.8845 4.52833 14.9994 4.52833C21.1143 4.52833 20.5183 9.04362 20.5183 9.04362V11.9451C20.8239 12.2214 21.0198 12.6159 21.0198 13.0574V15.0646C21.0198 15.7393 20.567 16.307 19.9522 16.4966C19.6098 17.5613 19.1156 18.5763 18.4624 19.4989C18.2977 19.7315 18.1437 19.9285 18.009 20.0819V21.9623C18.009 22.6546 18.4002 23.288 19.0194 23.597L23.812 25.993C24.0996 26.1368 24.3594 26.3185 24.5988 26.5206C27.8309 23.8251 29.919 19.7949 29.9966 15.2564C30.1392 6.97361 23.5398 0.143804 15.2564 0.00229471Z" fill="black"/>
</svg>
